<svg width="20" height="20" viewBox="0 0 20 20" fill="none" xmlns="http://www.w3.org/2000/svg">
<path fill-rule="evenodd" clip-rule="evenodd" d="M1.33433 2.87254C1.65065 2.34878 3.39349 0.443765 4.63721 0.501275C5.00899 0.532084 5.33764 0.756989 5.60466 1.01784C6.21779 1.61656 7.97296 3.88101 8.07258 4.35753C8.31496 5.52621 6.92232 6.1999 7.34853 7.37783C8.43512 10.0366 10.3074 11.9088 12.9673 12.9943C14.1443 13.4205 14.818 12.0279 15.9868 12.2713C16.4623 12.3709 18.7279 14.126 19.3266 14.7391C19.5865 15.0051 19.8124 15.3347 19.8432 15.7065C19.8894 17.0159 17.8662 18.7833 17.4718 19.0092C16.5414 19.6747 15.3274 19.6634 13.8475 18.9753C9.71786 17.2572 3.11825 10.7822 1.36822 6.49669C0.698603 5.02505 0.652387 3.80297 1.33433 2.87254Z" fill="#55C595"/>
</svg>
