<svg width="239" height="35" viewBox="0 0 239 35" fill="none" xmlns="http://www.w3.org/2000/svg">
<g clip-path="url(#clip0)">
<path d="M46.0855 1L53.5855 1L53.5854 33H46.0854L46.0855 1Z" fill="#215273"/>
<path d="M63.8274 1L71.3274 1L71.3274 33H63.8274L63.8274 1Z" fill="#215273"/>
<path d="M92.6128 1L100.113 1V33H92.6128V1Z" fill="#215273"/>
<path d="M108.842 1L116.342 1V33H108.842V1Z" fill="#215273"/>
<path d="M139.14 1L146.64 1V33H139.14V1Z" fill="#215273"/>
<path d="M143.986 13.25V20.75L111.986 20.75V13.25L143.986 13.25Z" fill="#215273"/>
<path d="M156.568 28V1.15142H163.452V24.5817C165.115 25.3878 168.899 27 174.731 27C180.564 27 183.41 25.3878 184.603 24.5817V1.15142H191.999V28C192.51 30.0079 189.773 34.0236 174.731 34.0236C159.689 34.0236 156.355 30.0079 156.568 28Z" fill="#215273"/>
<path d="M201.896 1L209.396 1V33H201.896V1Z" fill="#215273"/>
<path d="M232.591 1H202.119L208.031 6.80313H230.772C233.173 8.86647 232.136 12.4527 231.318 13.988H208.031V19.8832H231.318C232.846 21.6518 231.954 25.2258 231.318 26.7917H208.85L201.851 33.1047C210.643 33.1047 229.025 32.8712 232.591 32.8712C237.049 32.8712 238.504 27.9892 238.504 23.6598C238.504 20.1964 237.473 17.4883 236.957 16.5671C237.473 16.2908 238.504 14.4117 238.504 9.10596C238.504 3.80024 234.562 1.49127 232.591 1Z" fill="#215273"/>
<path d="M93.0598 33.1153L99.5947 30.7813L71.3125 0.996094L70.8096 10.7093L93.0598 33.1153Z" fill="#215273"/>
<path d="M0.34375 33V25.5H8.57064V33H0.34375Z" fill="#55C595"/>
<path d="M0.34375 8V0.5H35.8438V8H0.34375Z" fill="#215273"/>
<path d="M0.34375 20.2922V12.7922H35.8438V20.2922H0.34375Z" fill="#215273"/>
</g>
<defs>
<clipPath id="clip0">
<rect width="238.16" height="33.5236" fill="white" transform="translate(0.34375 0.5)"/>
</clipPath>
</defs>
</svg>
