<svg width="238" height="34" viewBox="0 0 238 34" fill="none" xmlns="http://www.w3.org/2000/svg">
<g clip-path="url(#clip0)">
<path d="M45.7417 0.500003L53.2417 0.500004L53.2417 32.5H45.7417L45.7417 0.500003Z" fill="white"/>
<path d="M63.4836 0.500003L70.9836 0.500004L70.9836 32.5H63.4836L63.4836 0.500003Z" fill="white"/>
<path d="M92.269 0.500003L99.769 0.500004V32.5H92.269V0.500003Z" fill="white"/>
<path d="M108.499 0.500003L115.999 0.500004V32.5H108.499V0.500003Z" fill="white"/>
<path d="M138.796 0.500003L146.296 0.500004V32.5H138.796V0.500003Z" fill="white"/>
<path d="M143.642 12.75V20.25L111.642 20.25V12.75L143.642 12.75Z" fill="white"/>
<path d="M156.225 27.5V0.651417H163.108V24.0817C164.771 24.8878 168.555 26.5 174.388 26.5C180.22 26.5 183.066 24.8878 184.26 24.0817V0.651417H191.655V27.5C192.167 29.5079 189.429 33.5236 174.388 33.5236C159.346 33.5236 156.011 29.5079 156.225 27.5Z" fill="white"/>
<path d="M201.553 0.500003L209.053 0.500004V32.5H201.553V0.500003Z" fill="white"/>
<path d="M232.248 0.500004H201.775L207.687 6.30313H230.428C232.83 8.36647 231.793 11.9527 230.974 13.488H207.687V19.3832H230.974C232.502 21.1518 231.611 24.7258 230.974 26.2917H208.506L201.507 32.6047C210.299 32.6047 228.682 32.3712 232.248 32.3712C236.705 32.3712 238.16 27.4892 238.16 23.1598C238.16 19.6964 237.129 16.9883 236.614 16.0671C237.129 15.7908 238.16 13.9117 238.16 8.60596C238.16 3.30024 234.218 0.991273 232.248 0.500004Z" fill="white"/>
<path d="M92.7161 32.6153L99.251 30.2813L70.9688 0.496094L70.4658 10.2093L92.7161 32.6153Z" fill="white"/>
<path d="M0 32.5V25H8.22689V32.5H0Z" fill="#55C595"/>
<path d="M0 7.5V0H35.5V7.5H0Z" fill="white"/>
<path d="M0 19.7922V12.2922H35.5V19.7922H0Z" fill="white"/>
</g>
<defs>
<clipPath id="clip0">
<rect width="238" height="34" fill="white"/>
</clipPath>
</defs>
</svg>
