<svg width="16" height="20" viewBox="0 0 16 20" fill="none" xmlns="http://www.w3.org/2000/svg">
<circle cx="7.92305" cy="5.27803" r="4.77803" fill="#215273"/>
<path fill-rule="evenodd" clip-rule="evenodd" d="M0.34401 16.7014C0.342727 16.3655 0.417847 16.0337 0.56369 15.7311C1.02136 14.8158 2.31197 14.3307 3.38291 14.111C4.15527 13.9462 4.9383 13.836 5.72616 13.7815C7.18483 13.6533 8.65193 13.6533 10.1106 13.7815C10.8984 13.8367 11.6814 13.9468 12.4538 14.111C13.5248 14.3307 14.8154 14.77 15.2731 15.7311C15.5664 16.3479 15.5664 17.064 15.2731 17.6808C14.8154 18.6419 13.5248 19.0812 12.4538 19.2918C11.6824 19.4634 10.8991 19.5766 10.1106 19.6304C8.92336 19.7311 7.73058 19.7494 6.54081 19.6854C6.26621 19.6854 6.00076 19.6854 5.72616 19.6304C4.94063 19.5773 4.16031 19.4641 3.39207 19.2918C2.31197 19.0812 1.03051 18.6419 0.56369 17.6808C0.418592 17.3747 0.343546 17.0401 0.34401 16.7014Z" fill="#215273"/>
</svg>
