<svg width="55" height="35" viewBox="0 0 55 35" fill="none" xmlns="http://www.w3.org/2000/svg">
<path d="M9.58556 1.45056C9.83087 0.591956 10.6156 0 11.5086 0H25.6819C27.0106 0 27.97 1.27181 27.6049 2.54944L18.7478 33.5494C18.5025 34.408 17.7177 35 16.8247 35H2.65146C1.3227 35 0.363374 33.7282 0.728412 32.4506L9.58556 1.45056Z" fill="#1F4F71"/>
<path d="M36.2522 1.45056C36.4975 0.591956 37.2823 0 38.1753 0H52.3485C53.6773 0 54.6366 1.27181 54.2716 2.54944L45.4144 33.5494C45.1691 34.408 44.3844 35 43.4914 35H29.3181C27.9894 35 27.03 33.7282 27.3951 32.4506L36.2522 1.45056Z" fill="#1F4F71"/>
</svg>
