<svg width="55" height="35" viewBox="0 0 55 35" fill="none" xmlns="http://www.w3.org/2000/svg">
<path d="M9.79278 0.725282C9.91543 0.29598 10.3078 0 10.7543 0H27.0076C27.672 0 28.1516 0.635905 27.9691 1.27472L18.5406 34.2747C18.4179 34.704 18.0255 35 17.579 35H1.32573C0.661352 35 0.181687 34.3641 0.364206 33.7253L9.79278 0.725282Z" fill="#EEEEEE"/>
<path d="M36.4594 0.725282C36.5821 0.29598 36.9745 0 37.421 0H53.6743C54.3386 0 54.8183 0.635905 54.6358 1.27472L45.2072 34.2747C45.0846 34.704 44.6922 35 44.2457 35H27.9924C27.328 35 26.8484 34.3641 27.0309 33.7253L36.4594 0.725282Z" fill="#EEEEEE"/>
</svg>
