<svg xmlns="http://www.w3.org/2000/svg" viewBox="0 0 126.23 197.05"><defs><style>.cls-1{fill:#7be396;}.cls-2{fill:none;stroke:#349c9d;stroke-linecap:round;stroke-linejoin:round;stroke-width:3px;}</style></defs><g id="Layer_2" data-name="Layer 2"><g id="Layer_3" data-name="Layer 3"><path class="cls-1" d="M60.1,165V156c-5.14-.09-10.45-1.69-13.55-3.9l2.12-5.94A23.6,23.6,0,0,0,61.43,150c6.29,0,10.54-3.63,10.54-8.68,0-4.88-3.45-7.89-10-10.55-9-3.54-14.62-7.62-14.62-15.32,0-7.36,5.23-12.94,13.38-14.27v-9h5.49v8.6a23.51,23.51,0,0,1,11.52,3.1l-2.21,5.84a21.48,21.48,0,0,0-11.17-3c-6.82,0-9.39,4.08-9.39,7.62,0,4.61,3.28,6.91,11,10.1,9.13,3.72,13.73,8.33,13.73,16.22,0,7-4.87,13.55-14,15.06V165Z"/><path class="cls-2" d="M88.3,61.66c17.89,22.58,36.43,59.86,36.43,87.56,0,42.47-19.15,46.33-61.62,46.33S1.5,191.69,1.5,149.22c0-27.7,18.54-65,36.43-87.56"/><rect class="cls-2" x="35.05" y="45.33" width="56.12" height="16.33" rx="3.7"/><polyline class="cls-2" points="41.53 45.33 26.01 12.44 47.43 12.44 47.43 1.5 78.41 1.5 78.41 10.61 97.55 10.61 84.7 45.33"/><line class="cls-2" x1="78.41" y1="10.61" x2="78.41" y2="19.27"/><line class="cls-2" x1="47.43" y1="12.44" x2="47.43" y2="19.27"/><line class="cls-2" x1="44.23" y1="53.33" x2="56.31" y2="53.33"/></g></g></svg>