<svg xmlns="http://www.w3.org/2000/svg" viewBox="0 0 196.91 160.76"><defs><style>.cls-1{fill:none;stroke:#349c9d;stroke-linecap:round;stroke-linejoin:round;stroke-width:3px;}.cls-2{fill:#7be396;}</style></defs><g id="Layer_2" data-name="Layer 2"><g id="Layer_3" data-name="Layer 3"><rect class="cls-1" x="46.86" y="1.5" width="102.54" height="157.76" rx="4.84"/><rect class="cls-2" x="65.45" y="24.04" width="65.36" height="89.59" rx="2.16"/><circle class="cls-1" cx="98.13" cy="135.96" r="8.73"/><path class="cls-1" d="M25.33,96.61a27.86,27.86,0,0,1-3.64-14.34,36.49,36.49,0,0,1,3-14.9"/><path class="cls-1" d="M7.37,113.62a97.06,97.06,0,0,1,.35-67.43"/><path class="cls-1" d="M171.58,96.61a27.86,27.86,0,0,0,3.64-14.34,36.59,36.59,0,0,0-3-14.9"/><path class="cls-1" d="M189.54,113.62a97.06,97.06,0,0,0-.35-67.43"/></g></g></svg>