<svg xmlns="http://www.w3.org/2000/svg" viewBox="0 0 175.4 197.89"><defs><style>.cls-1,.cls-2{fill:none;stroke-linecap:round;stroke-linejoin:round;stroke-width:3px;}.cls-1{stroke:#53c495;}.cls-2{stroke:#297688;}</style></defs><g id="Layer_2" data-name="Layer 2"><g id="Layer_3" data-name="Layer 3"><path class="cls-1" d="M81.41,161.68s-4.23-5.94-8.92-22.16c-1.88-6.5-5.1-14.66-6.21-24.76C62.43,79.5,78,89.18,79.21,111.4s-8.39-1.53,3.08-17.79c12.58-17.83,16.87,27.75,12.61,27S96,89.78,105.17,91.32c6.35,1.06,3.24,25.13-2.87,46.34-2.66,9.28-4.68,18-8.78,24"/><path class="cls-2" d="M139,88.19A51.85,51.85,0,1,0,60.56,132.7v63.69h53.2V132.7A51.83,51.83,0,0,0,139,88.19Z"/><line class="cls-2" x1="60.56" y1="161.68" x2="113.76" y2="161.68"/><line class="cls-2" x1="113.76" y1="172.05" x2="76.79" y2="172.05"/><line class="cls-1" x1="16.83" y1="89.47" x2="1.5" y2="89.47"/><line class="cls-1" x1="36.34" y1="38.84" x2="25.5" y2="28"/><line class="cls-1" x1="85.94" y1="16.83" x2="85.94" y2="1.5"/><line class="cls-1" x1="136.57" y1="36.34" x2="147.41" y2="25.5"/><line class="cls-1" x1="158.57" y1="85.94" x2="173.9" y2="85.94"/></g></g></svg>