<svg xmlns="http://www.w3.org/2000/svg" viewBox="0 0 153.77 199.67"><defs><style>.cls-1{fill:none;stroke:#297688;stroke-linecap:round;stroke-linejoin:round;stroke-width:3px;}</style></defs><g id="Layer_2" data-name="Layer 2"><g id="Layer_3" data-name="Layer 3"><path class="cls-1" d="M152.27,198.17S69.86,192.6,32,65.76"/><path class="cls-1" d="M102.17,178.27s-31.25,9-60.86-17.27l10.63-3.83c-5.68.07-12-1.39-17.86-3.36-8.17-9.08-16-21.23-22.74-37.39-1.39-3.33-2.62-6.59-3.67-9.83l17.59,5.87A102.32,102.32,0,0,1,2.7,85.63v0A116,116,0,0,1,4.91,41.05l7.62,4.23C10.61,40.62,9,35.92,7.67,31.63v0C14,12.7,23,1.5,23,1.5S33.61,17.29,49.16,43.09v24.5l5.52-15.24C62.55,65.65,71.4,81.05,80.6,98v21l4.58-12.48C117.62,168.09,102.17,178.27,102.17,178.27Z"/></g></g></svg>