<svg xmlns="http://www.w3.org/2000/svg" viewBox="0 0 195.75 162.53"><defs><style>.cls-1{fill:none;stroke:#349c9d;stroke-linecap:round;stroke-linejoin:round;stroke-width:3px;}.cls-2{fill:#7be396;}</style></defs><g id="Layer_2" data-name="Layer 2"><g id="Layer_3" data-name="Layer 3"><circle class="cls-1" cx="81.26" cy="81.26" r="79.76"/><path class="cls-1" d="M81.26,161V1.5S123.31,27,123.31,81.26,81.26,161,81.26,161Z"/><path class="cls-1" d="M81.27,161V1.5s-42,25.51-42,79.76S81.27,161,81.27,161Z"/><line class="cls-1" x1="1.5" y1="81.26" x2="161.03" y2="81.26"/><path class="cls-1" d="M23.14,26.67S36.67,49.44,81.26,49.44,139.4,26.67,139.4,26.67"/><path class="cls-1" d="M23.14,135.54s13.53-22.76,58.12-22.76,58.14,22.76,58.14,22.76"/><polygon class="cls-2" points="135.35 91.13 163.68 132.68 170.06 124.5 189.67 139.79 195.75 131.99 176.15 116.69 182.54 108.51 135.35 91.13"/></g></g></svg>