<svg xmlns="http://www.w3.org/2000/svg" viewBox="0 0 197.01 196.53"><defs><style>.cls-1{fill:none;stroke:#297688;stroke-linecap:round;stroke-linejoin:round;stroke-width:3px;}.cls-2{fill:#7be396;}</style></defs><g id="Layer_2" data-name="Layer 2"><g id="Layer_5" data-name="Layer 5"><polyline class="cls-1" points="114.14 175.32 143.91 187.14 195.51 57.14 104.86 21.17 97.29 40.24"/><line class="cls-1" x1="128.45" y1="44.83" x2="162.12" y2="58.19"/><line class="cls-1" x1="114.14" y1="64.81" x2="171.73" y2="87.67"/><line class="cls-1" x1="114.14" y1="76.53" x2="167.72" y2="97.79"/><line class="cls-1" x1="114.14" y1="88.24" x2="163.7" y2="107.91"/><rect class="cls-1" x="1.5" y="40.21" width="112.64" height="154.82"/><polyline class="cls-1" points="1.5 40.21 75.49 1.5 75.49 40.21"/><path class="cls-2" d="M59.33,101.23v27.16c4.18-4.42,12.21-14.48,13-27.16Z"/><path class="cls-2" d="M56.31,70.65c-4.62,4.07-14.39,14.18-15,27.45v.11h15Z"/><path class="cls-2" d="M56.31,128.56V101.23h-15C41.88,110.49,46.9,119.66,56.31,128.56Z"/><path class="cls-2" d="M75.41,98.21H90A32.24,32.24,0,0,0,60.09,67.56C70,77.18,75.12,87.48,75.41,98.21Z"/><path class="cls-2" d="M75.37,101.23c-.88,15.46-11.4,27-15.21,30.65A32.25,32.25,0,0,0,90,101.23Z"/><path class="cls-2" d="M59.33,71.08V98.21H72.39C72.1,88.81,67.72,79.7,59.33,71.08Z"/><path class="cls-2" d="M38.29,101.23H25.61a32.25,32.25,0,0,0,29.85,30.65C44.62,122,38.86,111.74,38.29,101.23Z"/><path class="cls-2" d="M38.26,98.21v-.28c.76-15.51,12.47-26.63,17-30.35A32.24,32.24,0,0,0,25.61,98.21Z"/><line class="cls-1" x1="30.16" y1="152.23" x2="85.49" y2="152.23"/><line class="cls-1" x1="30.16" y1="164.63" x2="85.49" y2="164.63"/></g></g></svg>