<svg xmlns="http://www.w3.org/2000/svg" viewBox="0 0 114.75 195"><defs><style>.cls-1{fill:none;stroke:#297688;stroke-linecap:round;stroke-linejoin:round;stroke-width:3px;}.cls-2{fill:#7be396;}</style></defs><g id="Layer_2" data-name="Layer 2"><g id="Layer_5" data-name="Layer 5"><rect class="cls-1" x="1.5" y="39.9" width="111.75" height="153.6"/><polyline class="cls-1" points="1.5 39.9 74.91 1.5 74.91 39.9"/><path class="cls-2" d="M58.88,100.45v26.94C63,123,71,113,71.78,100.45Z"/><path class="cls-2" d="M55.88,70.11C51.29,74.14,41.6,84.17,41,97.34v.11H55.88Z"/><path class="cls-2" d="M55.88,127.56V100.45H41C41.56,109.63,46.54,118.73,55.88,127.56Z"/><path class="cls-2" d="M74.83,97.45H89.34A32,32,0,0,0,59.63,67C69.43,76.58,74.54,86.8,74.83,97.45Z"/><path class="cls-2" d="M74.78,100.45c-.87,15.34-11.31,26.75-15.09,30.4a32,32,0,0,0,29.65-30.4Z"/><path class="cls-2" d="M58.88,70.53V97.45H71.83C71.54,88.12,67.19,79.09,58.88,70.53Z"/><path class="cls-2" d="M38,100.45H25.41A32,32,0,0,0,55,130.85C44.28,121.07,38.57,110.87,38,100.45Z"/><path class="cls-2" d="M38,97.45v-.28c.75-15.39,12.37-26.42,16.83-30.11A32,32,0,0,0,25.41,97.45Z"/><line class="cls-1" x1="29.93" y1="151.04" x2="84.82" y2="151.04"/><line class="cls-1" x1="29.93" y1="163.35" x2="84.82" y2="163.35"/></g></g></svg>