<svg xmlns="http://www.w3.org/2000/svg" viewBox="0 0 191.48 191.48"><defs><style>.cls-1{fill:none;stroke:#297688;stroke-linecap:round;stroke-linejoin:round;stroke-width:3px;}.cls-2{fill:#7be396;}</style></defs><g id="Layer_2" data-name="Layer 2"><g id="Layer_5" data-name="Layer 5"><path class="cls-1" d="M147.75,2.68C172.67-4,195.48,18.81,188.8,43.73l-16.26,60.69-16.26,60.7c-6.68,24.92-37.83,33.27-56.08,15L55.77,135.71,11.34,91.28C-6.91,73,1.44,41.88,26.36,35.2l60.7-16.26Z"/><path class="cls-2" d="M93.73,107.49H67.5a.57.57,0,0,1-.65-.64v-2.43a1,1,0,0,1,.36-.82L78.73,91.49a79.84,79.84,0,0,0,7.44-8.72,11.75,11.75,0,0,0,2.36-6.7,6.89,6.89,0,0,0-1.86-4.85q-1.86-2-5.64-2-5.67,0-10.4,5.19c-.27.36-.59.36-.94,0L67.8,71.82a.72.72,0,0,1,0-.95Q73.35,64.62,81,64.61A13.15,13.15,0,0,1,90,67.68,10.59,10.59,0,0,1,93.49,76a14.82,14.82,0,0,1-2.42,8,72.88,72.88,0,0,1-8,9.9q-4.38,4.84-8.69,9H93.73c.43,0,.65.23.65.71v3.19A.57.57,0,0,1,93.73,107.49Z"/><path class="cls-2" d="M112.45,107.49H109c-.47,0-.71-.21-.71-.64V71.11L101,76a.61.61,0,0,1-.94-.18L98.4,73.06c-.28-.32-.22-.63.17-1l10-6.62a1.81,1.81,0,0,1,.88-.23h3c.48,0,.71.21.71.65v40.94C113.16,107.28,112.93,107.49,112.45,107.49Z"/><path class="cls-2" d="M137.8,85.52h10a.58.58,0,0,1,.65.65v3.19c0,.47-.22.71-.65.71h-10v10.1a.63.63,0,0,1-.71.71h-3.25a.63.63,0,0,1-.71-.71V90.07h-10c-.44,0-.65-.24-.65-.71V86.17a.57.57,0,0,1,.65-.65h10V75.42a.63.63,0,0,1,.71-.71h3.25a.63.63,0,0,1,.71.71Z"/></g></g></svg>