<svg xmlns="http://www.w3.org/2000/svg" viewBox="0 0 138.94 196.74"><defs><style>.cls-1{fill:none;stroke:#297688;stroke-linecap:round;stroke-linejoin:round;stroke-width:3px;}</style></defs><g id="Layer_2" data-name="Layer 2"><g id="Layer_3" data-name="Layer 3"><path class="cls-1" d="M28.22,92.93c39.26-54,91.92-21,101.83-4.68s-4.08,29.35-19.82,14S60.26,86.5,56,115.41s28.24,38.76,44.72,25.68c6.17-4.89,9.86-14.22,14.56-21,6.48-9.3,22.23-6,22.18,12.45C137.35,166.4,115,188.16,85,194c-33,6.42-85.89-10.9-83.38-76.19C3,82,16.93,48,51.93,21.42c42.33-32.17,56.84-17.9,55.19-8.57-2.33,13.22-28.88,14.28-50.25,55.31"/><path class="cls-1" d="M100.39,22c11-1.4,15,11.43,7.22,17.55-10,7.85-15.21,14-23.39,23.86"/></g></g></svg>