<svg xmlns="http://www.w3.org/2000/svg" viewBox="0 0 185.2 197.8"><defs><style>.cls-1{fill:none;stroke:#297688;stroke-linecap:round;stroke-linejoin:round;stroke-width:3px;}.cls-2{fill:#53c495;}</style></defs><g id="Layer_2" data-name="Layer 2"><g id="Layer_3" data-name="Layer 3"><polygon class="cls-1" points="145.53 116.36 145.53 1.5 39.67 1.5 39.67 116.36 1.5 116.36 92.6 196.3 183.7 116.36 145.53 116.36"/><path class="cls-2" d="M86.44,65.49q0,5.85-3.79,9.13a14.35,14.35,0,0,1-18.26,0q-3.78-3.27-3.78-9.13V53.08q0-6.06,3.78-9.29a14.52,14.52,0,0,1,18.26,0q3.8,3.24,3.79,9.29ZM72.21,113.22H67a.9.9,0,0,1-.91-.45,1,1,0,0,1,.1-1L113,42.48a1.81,1.81,0,0,1,1.41-.71h5.25a.9.9,0,0,1,.91.46,1,1,0,0,1-.1,1L73.62,112.51A1.78,1.78,0,0,1,72.21,113.22ZM66.66,65a6.54,6.54,0,0,0,6.86,7.17,6.81,6.81,0,0,0,4.79-1.82,6.89,6.89,0,0,0,2-5.35V53.78a7.38,7.38,0,0,0-2-5.55,6.63,6.63,0,0,0-4.79-1.91,6.75,6.75,0,0,0-4.89,1.91,7.41,7.41,0,0,0-2,5.55Zm60.45,36.74q0,5.85-3.79,9.13a14.28,14.28,0,0,1-18.21,0q-3.84-3.28-3.84-9.13V89.3q0-6,3.79-9.28a14.59,14.59,0,0,1,18.31,0q3.73,3.23,3.74,9.28Zm-19.68-.51a6.89,6.89,0,0,0,2,5.35,7.21,7.21,0,0,0,9.58,0,6.92,6.92,0,0,0,2-5.35V90a7.41,7.41,0,0,0-2-5.55,6.94,6.94,0,0,0-9.58,0,7.38,7.38,0,0,0-2,5.55Z"/></g></g></svg>